# xmcd
#
# Track frame offsets:
# 150
# 25710
# 45956
# 84773
# 99774
# 129532
# 159141
# 185586
# 202543
# 216922
#
# Disc length: 3088 seconds
#
# Revision: 0
# Processed by: cddbd v1.5.1PL2 Copyright (c) Steve Scherf et al.
# Submitted via: Audion 3.0.2 (http://www.panic.com/audion/)
#
DISCID=660c0e0a
DTITLE=KELSY - BREAK THE MOLD
DYEAR=1900
DGENRE=
TTITLE0=SLAVE TO THE RHYTHM
TTITLE1=SOUP  and SYRUP
TTITLE2=ME and MY WINDOW
TTITLE3=RADICAL SOUL
TTITLE4=TIRED PEOPLE
TTITLE5=MEDICINE
TTITLE6=HOUSE OF THE RISING SUN
TTITLE7=GETTING BY
TTITLE8=ROCK THE MACHINE
TTITLE9=ME AND MY WINDOW
EXTD=
EXTT0=
EXTT1=
EXTT2=
EXTT3=
EXTT4=
EXTT5=
EXTT6=
EXTT7=
EXTT8=
EXTT9=
PLAYORDER=
